<mxfile host="app.diagrams.net" modified="2022-06-22T02:08:21.163Z" agent="5.0 (Windows NT 10.0; Win64; x64) AppleWebKit/537.36 (KHTML, like Gecko) Chrome/102.0.0.0 Safari/537.36" etag="kenWI273km5g68GGv29t" version="20.0.1" type="github">
  <diagram id="I5vzNxdLaVSzaIgCpo3I" name="Page-1">
    <mxGraphModel dx="702" dy="761" grid="1" gridSize="10" guides="1" tooltips="1" connect="1" arrows="1" fold="1" page="1" pageScale="1" pageWidth="827" pageHeight="1169" math="0" shadow="0">
      <root>
        <mxCell id="0" />
        <mxCell id="1" parent="0" />
        <mxCell id="M3S95Sz8UXM2FycRjZMM-1" value="User&#xa;" style="swimlane;fontStyle=1;align=center;verticalAlign=top;childLayout=stackLayout;horizontal=1;startSize=26;horizontalStack=0;resizeParent=1;resizeParentMax=0;resizeLast=0;collapsible=1;marginBottom=0;" vertex="1" parent="1">
          <mxGeometry x="414" y="30" width="330" height="180" as="geometry" />
        </mxCell>
        <mxCell id="M3S95Sz8UXM2FycRjZMM-2" value="- screenName: String" style="text;strokeColor=none;fillColor=none;align=left;verticalAlign=top;spacingLeft=4;spacingRight=4;overflow=hidden;rotatable=0;points=[[0,0.5],[1,0.5]];portConstraint=eastwest;" vertex="1" parent="M3S95Sz8UXM2FycRjZMM-1">
          <mxGeometry y="26" width="330" height="26" as="geometry" />
        </mxCell>
        <mxCell id="M3S95Sz8UXM2FycRjZMM-3" value="" style="line;strokeWidth=1;fillColor=none;align=left;verticalAlign=middle;spacingTop=-1;spacingLeft=3;spacingRight=3;rotatable=0;labelPosition=right;points=[];portConstraint=eastwest;" vertex="1" parent="M3S95Sz8UXM2FycRjZMM-1">
          <mxGeometry y="52" width="330" height="8" as="geometry" />
        </mxCell>
        <mxCell id="M3S95Sz8UXM2FycRjZMM-4" value="+ crearTweet(mensaje: String): Tweet&#xa;+ retwittear(mensaje: String, otroTweet: Tweet): Tweet&#xa;+ eliminarTweets()&#xa;" style="text;strokeColor=none;fillColor=none;align=left;verticalAlign=top;spacingLeft=4;spacingRight=4;overflow=hidden;rotatable=0;points=[[0,0.5],[1,0.5]];portConstraint=eastwest;" vertex="1" parent="M3S95Sz8UXM2FycRjZMM-1">
          <mxGeometry y="60" width="330" height="120" as="geometry" />
        </mxCell>
        <mxCell id="M3S95Sz8UXM2FycRjZMM-5" value="Tweet" style="swimlane;fontStyle=1;align=center;verticalAlign=top;childLayout=stackLayout;horizontal=1;startSize=26;horizontalStack=0;resizeParent=1;resizeParentMax=0;resizeLast=0;collapsible=1;marginBottom=0;" vertex="1" parent="1">
          <mxGeometry x="110" y="190" width="180" height="134" as="geometry" />
        </mxCell>
        <mxCell id="M3S95Sz8UXM2FycRjZMM-6" value="- tweetOrigen: Tweet&#xa;- esRetweet: boolean&#xa;-mensaje: String&#xa;" style="text;strokeColor=none;fillColor=none;align=left;verticalAlign=top;spacingLeft=4;spacingRight=4;overflow=hidden;rotatable=0;points=[[0,0.5],[1,0.5]];portConstraint=eastwest;" vertex="1" parent="M3S95Sz8UXM2FycRjZMM-5">
          <mxGeometry y="26" width="180" height="74" as="geometry" />
        </mxCell>
        <mxCell id="M3S95Sz8UXM2FycRjZMM-7" value="" style="line;strokeWidth=1;fillColor=none;align=left;verticalAlign=middle;spacingTop=-1;spacingLeft=3;spacingRight=3;rotatable=0;labelPosition=right;points=[];portConstraint=eastwest;" vertex="1" parent="M3S95Sz8UXM2FycRjZMM-5">
          <mxGeometry y="100" width="180" height="8" as="geometry" />
        </mxCell>
        <mxCell id="M3S95Sz8UXM2FycRjZMM-8" value="+ getIsRetweet(): boolean" style="text;strokeColor=none;fillColor=none;align=left;verticalAlign=top;spacingLeft=4;spacingRight=4;overflow=hidden;rotatable=0;points=[[0,0.5],[1,0.5]];portConstraint=eastwest;" vertex="1" parent="M3S95Sz8UXM2FycRjZMM-5">
          <mxGeometry y="108" width="180" height="26" as="geometry" />
        </mxCell>
        <mxCell id="M3S95Sz8UXM2FycRjZMM-9" value="" style="endArrow=diamondThin;endFill=1;endSize=24;html=1;rounded=0;entryX=0.994;entryY=1.038;entryDx=0;entryDy=0;entryPerimeter=0;exitX=0;exitY=1.231;exitDx=0;exitDy=0;exitPerimeter=0;" edge="1" parent="1" source="M3S95Sz8UXM2FycRjZMM-2" target="M3S95Sz8UXM2FycRjZMM-6">
          <mxGeometry width="160" relative="1" as="geometry">
            <mxPoint x="380" y="120" as="sourcePoint" />
            <mxPoint x="440" y="390" as="targetPoint" />
          </mxGeometry>
        </mxCell>
        <mxCell id="M3S95Sz8UXM2FycRjZMM-10" value="0..*&lt;br&gt;-tweets" style="text;html=1;align=center;verticalAlign=middle;resizable=0;points=[];autosize=1;strokeColor=none;fillColor=none;" vertex="1" parent="1">
          <mxGeometry x="290" y="240" width="50" height="30" as="geometry" />
        </mxCell>
        <mxCell id="M3S95Sz8UXM2FycRjZMM-11" value="Twitter" style="swimlane;fontStyle=1;align=center;verticalAlign=top;childLayout=stackLayout;horizontal=1;startSize=26;horizontalStack=0;resizeParent=1;resizeParentMax=0;resizeLast=0;collapsible=1;marginBottom=0;" vertex="1" parent="1">
          <mxGeometry x="400" y="360" width="280" height="150" as="geometry" />
        </mxCell>
        <mxCell id="M3S95Sz8UXM2FycRjZMM-13" value="" style="line;strokeWidth=1;fillColor=none;align=left;verticalAlign=middle;spacingTop=-1;spacingLeft=3;spacingRight=3;rotatable=0;labelPosition=right;points=[];portConstraint=eastwest;" vertex="1" parent="M3S95Sz8UXM2FycRjZMM-11">
          <mxGeometry y="26" width="280" height="8" as="geometry" />
        </mxCell>
        <mxCell id="M3S95Sz8UXM2FycRjZMM-14" value="+ agregarUsuario(nombre: String): User&#xa;+ eliminarUsuario(nombre: String): boolean&#xa;+ getUsuarios(): &lt;User&gt;Â &#xa;+ getCantUsuarios(): integer&#xa;" style="text;strokeColor=none;fillColor=none;align=left;verticalAlign=top;spacingLeft=4;spacingRight=4;overflow=hidden;rotatable=0;points=[[0,0.5],[1,0.5]];portConstraint=eastwest;" vertex="1" parent="M3S95Sz8UXM2FycRjZMM-11">
          <mxGeometry y="34" width="280" height="116" as="geometry" />
        </mxCell>
        <mxCell id="M3S95Sz8UXM2FycRjZMM-15" value="" style="endArrow=diamondThin;endFill=1;endSize=24;html=1;rounded=0;entryX=0.531;entryY=1.154;entryDx=0;entryDy=0;entryPerimeter=0;" edge="1" parent="1" source="M3S95Sz8UXM2FycRjZMM-11" target="M3S95Sz8UXM2FycRjZMM-4">
          <mxGeometry width="160" relative="1" as="geometry">
            <mxPoint x="420" y="198.00599999999997" as="sourcePoint" />
            <mxPoint x="279.03999999999996" y="252.98800000000006" as="targetPoint" />
          </mxGeometry>
        </mxCell>
        <mxCell id="M3S95Sz8UXM2FycRjZMM-17" value="0..*&lt;br&gt;-usuarios" style="text;html=1;align=center;verticalAlign=middle;resizable=0;points=[];autosize=1;strokeColor=none;fillColor=none;" vertex="1" parent="1">
          <mxGeometry x="490" y="240" width="60" height="30" as="geometry" />
        </mxCell>
        <mxCell id="M3S95Sz8UXM2FycRjZMM-18" value="0..1&lt;br&gt;-propietario" style="text;html=1;align=center;verticalAlign=middle;resizable=0;points=[];autosize=1;strokeColor=none;fillColor=none;" vertex="1" parent="1">
          <mxGeometry x="340" y="58" width="80" height="30" as="geometry" />
        </mxCell>
      </root>
    </mxGraphModel>
  </diagram>
</mxfile>
